<?xml version="1.0" standalone="no"?>
<!DOCTYPE svg PUBLIC "-//W3C//DTD SVG 20010904//EN"
 "http://www.w3.org/TR/2001/REC-SVG-20010904/DTD/svg10.dtd">
<svg version="1.0" xmlns="http://www.w3.org/2000/svg"
 width="752.000000pt" height="752.000000pt" viewBox="0 0 752.000000 752.000000"
 preserveAspectRatio="xMidYMid meet">
<metadata>
Created by potrace 1.16, written by Peter Selinger 2001-2019
</metadata>
<g transform="translate(0.000000,752.000000) scale(0.100000,-0.100000)"
fill="#000000" stroke="none">
<path d="M0 3760 l0 -3760 3760 0 3760 0 0 3760 0 3760 -3760 0 -3760 0 0
-3760z m2252 1747 c192 -70 335 -224 383 -412 8 -32 15 -73 15 -90 0 -53 49
-216 88 -289 69 -132 204 -253 345 -309 58 -23 106 -34 292 -68 155 -27 325
-159 398 -309 87 -176 87 -364 0 -540 -73 -150 -243 -282 -398 -309 -191 -34
-237 -45 -303 -73 -88 -37 -168 -94 -242 -174 -97 -105 -158 -250 -181 -427
-32 -252 -201 -445 -445 -507 -331 -85 -658 121 -730 460 -44 205 40 443 202
574 89 73 240 136 327 136 16 0 65 9 109 21 262 66 433 232 509 492 l23 77
-22 78 c-74 257 -248 425 -510 491 -44 12 -93 21 -109 21 -46 0 -143 28 -210
61 -136 66 -240 183 -293 329 -106 288 23 606 298 740 94 46 169 60 287 56 74
-3 117 -10 167 -29z m2172 13 c244 -62 413 -255 445 -507 26 -201 85 -328 211
-453 125 -126 246 -182 451 -209 151 -20 248 -69 355 -176 231 -233 231 -597
0 -830 -107 -107 -204 -156 -355 -176 -205 -27 -326 -83 -451 -209 -126 -125
-185 -252 -211 -453 -19 -150 -80 -269 -188 -369 -291 -270 -767 -179 -938
177 -164 345 22 746 392 840 32 8 72 15 88 15 16 0 65 9 109 21 262 66 433
232 509 492 l23 77 -22 78 c-74 257 -248 425 -510 491 -44 12 -93 21 -109 21
-87 0 -238 63 -327 136 -162 131 -246 369 -202 574 72 339 398 545 730 460z"/>
<path d="M1928 5361 c-324 -106 -413 -512 -163 -739 71 -64 150 -98 273 -116
129 -19 266 -65 357 -118 88 -51 237 -201 286 -285 34 -59 37 -61 47 -39 21
46 112 145 171 184 l60 40 -65 38 c-121 71 -241 198 -304 324 -41 81 -77 206
-95 322 -27 182 -106 296 -255 367 -66 31 -85 36 -165 38 -68 2 -104 -2 -147
-16z m252 -142 c58 -26 115 -81 148 -144 36 -70 38 -187 3 -259 -73 -149 -257
-214 -403 -143 -67 33 -112 81 -146 155 -21 47 -24 65 -20 131 7 121 57 199
160 250 52 27 72 31 137 31 55 0 89 -6 121 -21z"/>
<path d="M2016 5080 c-59 -18 -96 -73 -96 -144 0 -36 6 -52 30 -80 55 -63 131
-71 196 -21 84 64 63 199 -36 239 -45 18 -52 18 -94 6z"/>
<path d="M3145 4186 c-187 -45 -309 -188 -340 -395 -34 -224 -100 -372 -227
-507 -152 -159 -325 -244 -560 -274 -349 -43 -516 -432 -302 -703 162 -206
467 -223 652 -37 73 74 108 151 127 279 40 266 149 462 334 603 120 90 271
146 475 177 172 25 317 155 362 325 82 308 -211 608 -521 532z m195 -142 c71
-21 159 -107 183 -178 40 -117 14 -231 -73 -318 -69 -69 -137 -93 -235 -86
-186 15 -314 200 -261 379 48 168 213 254 386 203z m-1154 -1198 c63 -29 114
-79 145 -142 35 -72 33 -189 -3 -259 -58 -110 -146 -164 -269 -165 -65 0 -85
4 -137 31 -102 50 -152 128 -160 247 -15 231 211 385 424 288z"/>
<path d="M3172 3880 c-68 -42 -91 -124 -52 -188 75 -123 260 -75 260 68 0 108
-117 175 -208 120z"/>
<path d="M2005 2706 c-52 -23 -85 -71 -85 -122 0 -78 46 -135 120 -149 73 -13
160 63 160 140 0 39 -28 94 -61 118 -34 24 -96 31 -134 13z"/>
<path d="M4148 5361 c-324 -106 -413 -512 -163 -739 71 -64 150 -98 273 -116
129 -19 266 -65 357 -118 88 -51 237 -201 286 -285 34 -59 37 -61 47 -39 21
46 112 145 171 184 l60 40 -65 38 c-132 77 -248 205 -314 349 -45 96 -66 172
-85 302 -27 176 -108 291 -255 362 -66 31 -85 36 -165 38 -68 2 -104 -2 -147
-16z m252 -142 c58 -26 115 -81 148 -144 36 -70 38 -187 3 -259 -73 -149 -257
-214 -403 -143 -67 33 -112 81 -146 155 -21 47 -24 65 -20 131 7 121 57 199
160 250 52 27 72 31 137 31 55 0 89 -6 121 -21z"/>
<path d="M4236 5080 c-59 -18 -96 -73 -96 -144 0 -36 6 -52 30 -80 55 -63 131
-71 196 -21 84 64 63 199 -36 239 -45 18 -52 18 -94 6z"/>
<path d="M5365 4186 c-187 -45 -309 -188 -340 -395 -34 -224 -101 -372 -228
-508 -150 -158 -324 -243 -559 -273 -400 -50 -540 -541 -223 -782 83 -64 144
-82 265 -83 100 0 108 2 180 36 149 72 228 185 255 368 40 266 149 462 334
603 120 90 271 146 475 177 169 24 305 143 356 310 97 312 -197 624 -515 547z
m195 -142 c71 -21 159 -107 183 -178 40 -117 14 -231 -73 -318 -69 -69 -137
-93 -235 -86 -186 15 -314 200 -261 379 48 168 213 254 386 203z m-1154 -1198
c63 -29 114 -79 145 -142 35 -72 33 -189 -3 -259 -58 -110 -146 -164 -269
-165 -65 0 -85 4 -137 31 -103 51 -153 129 -160 250 -4 68 -1 84 22 135 15 33
39 72 54 87 89 94 226 119 348 63z"/>
<path d="M5392 3880 c-42 -26 -72 -76 -72 -120 0 -70 69 -140 138 -140 80 0
142 61 142 140 0 108 -117 175 -208 120z"/>
<path d="M4225 2706 c-52 -23 -85 -71 -85 -122 0 -78 46 -135 120 -149 72 -13
160 63 160 138 0 99 -108 173 -195 133z"/>
</g>
</svg>
